<?xml version="1.0" encoding="utf-8"?>
<!DOCTYPE svg PUBLIC "-//W3C//DTD SVG 1.0//EN" "http://www.w3.org/TR/2001/REC-SVG-20010904/DTD/svg10.dtd">
<svg version="1.0" xmlns="http://www.w3.org/2000/svg" width="500px" height="500px" viewBox="0 0 500 500" preserveAspectRatio="xMidYMid meet">
 <g fill="#2f1497">
  <path d="M276.85 376.50 c-3.40 -1.05 -4.95 -2.30 -4.75 -3.70 0.15 -0.95 0.60 -1.10 5.10 -1.35 2.75 -0.20 7.15 -0.45 9.75 -0.50 4.65 -0.20 4.80 -0.15 4.95 0.90 0.25 1.80 -0.85 3.15 -3.55 4.45 -3.20 1.45 -7.35 1.55 -11.50 0.20z"/>
  <path d="M113.50 376.15 c-14.25 -1.35 -24.95 -5.75 -32.70 -13.35 -4.50 -4.35 -7.10 -8.35 -10 -15.25 -3.30 -7.80 -4.05 -12.65 -4.05 -25.05 0.05 -12.20 1.10 -18.85 4.25 -27.40 8.30 -22.05 22.40 -35.90 41.35 -40.55 4 -1 5.50 -1.10 12 -0.90 10.30 0.30 14.20 1.65 20 6.85 4.80 4.35 7.15 8.35 8.65 14.75 2.25 9.55 0.50 20.55 -4.35 27.65 -3.25 4.75 -6.75 6.60 -12.30 6.60 -4.25 0 -7.45 -1.35 -8.90 -3.70 -1.25 -2.05 -1.25 -6.75 0.05 -12.60 1.65 -7.55 1.10 -11.50 -1.95 -13.55 -4.75 -3.20 -13.30 0.60 -18.35 8.20 -3.55 5.35 -6.40 12.60 -7.45 18.95 -2.85 17.30 0.20 31.25 8.15 37.30 5.35 4 11.20 5.75 17.90 5.20 13 -1 26.55 -8.50 39.15 -21.75 l2.65 -2.80 -0.30 -5 c-1.50 -25.15 -0.35 -45.05 4.45 -75.75 3.30 -20.85 6.50 -34.65 12.10 -51.50 4.85 -14.65 12.95 -32.15 19.45 -42.05 4.85 -7.40 13.05 -15.50 18.50 -18.35 8.75 -4.50 19.40 -4.80 25.85 -0.75 5.25 3.30 9.05 8.40 11.75 15.65 2.25 6.05 3 9.75 3.70 18.10 1.75 21.65 -4.25 50.70 -16.40 79.65 -1.25 3.05 -2.85 6.95 -3.60 8.70 -2.05 5.20 -12.70 26.15 -17.50 34.55 -6.30 11.05 -11.55 19.15 -22.75 35.35 -3.35 4.80 -3.45 5.60 -1.40 11.50 3.15 9.05 6.90 12.45 14.25 13 6.50 0.45 14.90 -2.45 20.95 -7.30 3.30 -2.60 9.25 -8.65 14.05 -14.20 3.35 -3.85 3.50 -3.85 5.50 0.65 1.05 2.35 1.50 4.55 2.05 9.65 0.55 5.75 1.10 8.25 2.45 11.35 0.65 1.55 -11.75 13.70 -18.95 18.45 -10.95 7.35 -18.55 9.75 -30.50 9.70 -7.60 0 -11.50 -0.75 -16.50 -3.10 -8.15 -3.85 -12.90 -8.60 -17.55 -17.45 -1 -2 -2 -3.75 -2.20 -3.85 -0.15 -0.10 -2.45 1.70 -5.10 3.95 -6.15 5.25 -9.65 7.65 -16.60 11.30 -6.90 3.65 -13.65 6.30 -19.25 7.50 -3.85 0.85 -15.90 2.15 -18 1.90 -0.45 0 -1.60 -0.15 -2.55 -0.25z m88.55 -90.30 c14.65 -26.35 22.15 -43.50 29.20 -66.85 1.85 -6.15 4.85 -19.55 5.80 -26 0.85 -5.55 1.10 -9.70 1.15 -17.75 0.05 -9.60 -0.05 -10.80 -1.10 -14.10 -2.30 -7.35 -6.15 -9.05 -10.55 -4.65 -7.85 7.90 -19.25 48.90 -24.50 88.25 -2.10 15.50 -2.55 19.70 -3.10 28 -0.25 4.70 -0.70 10.80 -0.85 13.65 -0.20 2.85 -0.30 5.25 -0.15 5.35 0.45 0.45 1.10 -0.50 4.10 -5.90z"/>
  <path d="M354.40 375.20 c-8.20 -1.50 -18.10 -5.95 -23.35 -10.45 -11.30 -9.65 -15.90 -20.60 -17.30 -41 l-0.30 -4.50 2.10 -2.75 c5.45 -7.10 8.60 -19.25 7.10 -27.35 -0.60 -3.20 -0.10 -4.50 4.15 -10.65 10.15 -14.70 23.75 -23.20 39.90 -25 15.65 -1.75 27.30 4.80 32.15 18.05 1.30 3.50 1.40 4.15 1.40 12.45 0 8.30 -0.10 8.95 -1.40 12.75 -3 8.70 -7.55 12.80 -14.25 12.85 -4.40 0.05 -7.30 -0.80 -9.50 -2.80 -1.65 -1.55 -1.80 -1.95 -2 -5 -0.15 -2.40 0.10 -4.50 0.95 -7.65 1.40 -5.40 1.55 -10.90 0.30 -12.80 -3.25 -4.95 -11.60 -3.10 -17.40 3.80 -3.50 4.15 -5.95 8.80 -7.60 14.35 -2.25 7.55 -2.55 9.85 -2.55 19.50 0 8.65 0.10 9.50 1.35 13.25 4.35 13.10 14.90 18.75 30.40 16.30 11.55 -1.85 25.05 -10.35 36 -22.60 5.85 -6.55 7.30 -7.85 9.45 -8.45 5.35 -1.45 8.75 2.35 9.30 10.35 0.40 5.10 -0.40 8.85 -2.90 14.10 -1.25 2.70 -2.75 4.50 -8.10 9.80 -3.60 3.60 -7.85 7.40 -9.50 8.50 -1.60 1.10 -3.70 2.55 -4.70 3.20 -6.55 4.35 -18.25 9.30 -26.25 11.15 -6.05 1.35 -21.65 1.70 -27.45 0.60z"/>
  <path d="M266.50 368 c-1.15 -1.15 -1 -2.75 0.30 -3.80 0.40 -0.30 2.55 -0.70 4.85 -0.90 6.55 -0.55 23.05 -2.30 23.80 -2.60 0.40 -0.10 1.10 0.15 1.60 0.60 2.30 2.10 0 5.20 -3.85 5.20 -1.15 0 -5.90 0.45 -10.55 0.95 -15.60 1.80 -14.95 1.75 -16.15 0.55z"/>
  <path d="M266.05 359.10 c-0.35 -0.60 -0.30 -1.30 0.10 -2.15 0.60 -1.15 1.10 -1.25 13.10 -2.80 15.55 -1.95 16.45 -2 17.45 -0.55 2.05 2.90 0.45 3.65 -9.95 4.65 -4.65 0.45 -9.95 1 -11.75 1.25 -5.35 0.80 -8.40 0.65 -8.95 -0.40z"/>
  <path d="M274.65 349.30 c-5.45 -0.90 -7.25 -1.55 -8.80 -3.20 -1.90 -2 -2.35 -3.65 -2.85 -10.80 -0.45 -6 -0.65 -6.85 -2.20 -10.05 -0.95 -1.90 -3.40 -5.75 -5.45 -8.50 -3.90 -5.30 -6.10 -9.20 -7.65 -13.75 -1.30 -3.85 -1.35 -14.90 0 -19.25 1.65 -5.60 4.60 -10.45 9 -14.90 4.55 -4.65 8.65 -7.25 14.55 -9.25 3.55 -1.20 4.70 -1.35 10.50 -1.30 7.10 0 11.25 0.90 16.75 3.70 16.55 8.35 23.85 28.10 16.70 45.10 -1.30 3.10 -4.25 7.70 -8.40 13 -4.30 5.55 -5.80 10.05 -5.80 17.50 0 5.75 -1.55 8.90 -5.50 10.90 -2.45 1.25 -15.10 1.70 -20.85 0.80z m15.60 -6.55 c3.55 -1.20 4.75 -2.45 4.75 -5.05 0 -3.15 -0.95 -3.65 -3.95 -2 -2.75 1.50 -5.75 1.70 -7.45 0.50 -0.85 -0.60 -1.10 -1.25 -1.10 -3.10 0 -3.05 1.20 -12.65 2.80 -22.55 0.70 -4.30 1.40 -9.65 1.55 -11.90 0.30 -3.90 0.25 -4.10 -1 -5.35 -1.10 -1.10 -1.75 -1.30 -4.10 -1.30 -2.45 0 -3 0.20 -4.55 1.65 l-1.75 1.60 -1.20 10.65 c-0.70 5.85 -1.70 13.80 -2.25 17.65 -1.15 8.15 -1.25 12.35 -0.30 14.60 0.80 2 3.85 4.75 5.70 5.15 0.75 0.15 1.60 0.40 1.85 0.50 1.10 0.45 8.70 -0.30 11 -1.05z m-4.35 -58.95 c3.40 -1.75 4.85 -5.30 3.60 -9 -1.05 -3.25 -5.25 -5.35 -8.55 -4.25 -6.10 2.05 -7.20 9.70 -1.80 12.95 1.90 1.15 4.85 1.30 6.75 0.30z"/>
 </g>
</svg>